<mxfile host="app.diagrams.net" modified="2023-08-22T14:00:05.181Z" agent="Mozilla/5.0 (Windows NT 10.0; Win64; x64) AppleWebKit/537.36 (KHTML, like Gecko) Chrome/116.0.0.0 Safari/537.36" etag="HbS5qrvJ3WwxKP-Vqgcl" version="21.6.8" type="github">
  <diagram name="Página-1" id="eMHlVDCelIliE96y5iJp">
    <mxGraphModel dx="2074" dy="750" grid="1" gridSize="10" guides="1" tooltips="1" connect="1" arrows="1" fold="1" page="1" pageScale="1" pageWidth="827" pageHeight="2000" math="0" shadow="0">
      <root>
        <mxCell id="0" />
        <mxCell id="1" parent="0" />
        <mxCell id="tfo9UOyOJ3hsdxHMLcPj-2" style="edgeStyle=orthogonalEdgeStyle;rounded=0;orthogonalLoop=1;jettySize=auto;html=1;exitX=0.5;exitY=1;exitDx=0;exitDy=0;entryX=0.517;entryY=-0.083;entryDx=0;entryDy=0;entryPerimeter=0;" edge="1" parent="1" source="tfo9UOyOJ3hsdxHMLcPj-1" target="tfo9UOyOJ3hsdxHMLcPj-12">
          <mxGeometry relative="1" as="geometry">
            <mxPoint x="178.25" y="239" as="targetPoint" />
          </mxGeometry>
        </mxCell>
        <mxCell id="tfo9UOyOJ3hsdxHMLcPj-6" value="Sí reconoce el movimiento" style="edgeLabel;html=1;align=center;verticalAlign=middle;resizable=0;points=[];" vertex="1" connectable="0" parent="tfo9UOyOJ3hsdxHMLcPj-2">
          <mxGeometry x="0.1597" y="-2" relative="1" as="geometry">
            <mxPoint x="-4" y="2" as="offset" />
          </mxGeometry>
        </mxCell>
        <mxCell id="tfo9UOyOJ3hsdxHMLcPj-4" style="edgeStyle=orthogonalEdgeStyle;rounded=0;orthogonalLoop=1;jettySize=auto;html=1;exitX=0.5;exitY=1;exitDx=0;exitDy=0;entryX=0.5;entryY=0;entryDx=0;entryDy=0;" edge="1" parent="1" source="tfo9UOyOJ3hsdxHMLcPj-1" target="tfo9UOyOJ3hsdxHMLcPj-14">
          <mxGeometry relative="1" as="geometry">
            <mxPoint x="673.25" y="220" as="targetPoint" />
          </mxGeometry>
        </mxCell>
        <mxCell id="tfo9UOyOJ3hsdxHMLcPj-7" value="No reconoce el movimiento" style="edgeLabel;html=1;align=center;verticalAlign=middle;resizable=0;points=[];" vertex="1" connectable="0" parent="tfo9UOyOJ3hsdxHMLcPj-4">
          <mxGeometry x="0.1855" y="-1" relative="1" as="geometry">
            <mxPoint as="offset" />
          </mxGeometry>
        </mxCell>
        <mxCell id="tfo9UOyOJ3hsdxHMLcPj-1" value="&lt;b&gt;El usuario contesta al mensaje proactivo en el chatbot.&lt;/b&gt;" style="rounded=1;whiteSpace=wrap;html=1;fillColor=#fb2e23;strokeColor=#b85450;" vertex="1" parent="1">
          <mxGeometry x="352.25" y="50" width="126" height="60" as="geometry" />
        </mxCell>
        <mxCell id="tfo9UOyOJ3hsdxHMLcPj-23" style="edgeStyle=orthogonalEdgeStyle;rounded=0;orthogonalLoop=1;jettySize=auto;html=1;exitX=0.5;exitY=1;exitDx=0;exitDy=0;entryX=0.5;entryY=0;entryDx=0;entryDy=0;" edge="1" parent="1" target="tfo9UOyOJ3hsdxHMLcPj-22">
          <mxGeometry relative="1" as="geometry">
            <mxPoint x="178.25" y="600" as="sourcePoint" />
          </mxGeometry>
        </mxCell>
        <mxCell id="tfo9UOyOJ3hsdxHMLcPj-3" value="En el namespace se guardan las siguientes propiedades&lt;br&gt;&lt;br&gt;&lt;div style=&quot;color: rgb(212, 212, 212); background-color: rgb(30, 30, 30); line-height: 18px;&quot;&gt;&quot;Message&quot;&lt;span style=&quot;color: #dcdcdc;&quot;&gt;:&lt;/span&gt;&amp;nbsp;&lt;span style=&quot;color: #ce9178;&quot;&gt;&quot;Si&amp;nbsp;reconozco&amp;nbsp;compra&quot;&lt;/span&gt;&lt;/div&gt;&lt;div style=&quot;background-color: rgb(30, 30, 30); line-height: 18px;&quot;&gt;&lt;div style=&quot;line-height: 18px;&quot;&gt;&lt;div style=&quot;color: rgb(212, 212, 212);&quot;&gt;&quot;userId&quot;&lt;span style=&quot;color: #dcdcdc;&quot;&gt;:&lt;/span&gt;&amp;nbsp;&lt;span style=&quot;color: #ce9178;&quot;&gt;&quot; &quot;&lt;/span&gt;&lt;span style=&quot;color: #dcdcdc;&quot;&gt;,&lt;/span&gt;&lt;/div&gt;&lt;div style=&quot;color: rgb(212, 212, 212);&quot;&gt;&amp;nbsp;&amp;nbsp;&amp;nbsp;&amp;nbsp;&lt;span style=&quot;color: #9cdcfe;&quot;&gt;&quot;botId&quot;&lt;/span&gt;&lt;span style=&quot;color: #dcdcdc;&quot;&gt;:&lt;/span&gt;&amp;nbsp;&lt;span style=&quot;color: #ce9178;&quot;&gt;&quot; &quot;&lt;/span&gt;&lt;span style=&quot;color: #dcdcdc;&quot;&gt;,&lt;/span&gt;&lt;/div&gt;&lt;div style=&quot;&quot;&gt;&lt;font color=&quot;#d4d4d4&quot;&gt;&amp;nbsp;&amp;nbsp;&amp;nbsp;&amp;nbsp;&lt;/font&gt;&lt;span style=&quot;color: rgb(156, 220, 254);&quot;&gt;&quot;conversationId&quot;&lt;/span&gt;&lt;span style=&quot;color: rgb(220, 220, 220);&quot;&gt;:&lt;/span&gt;&lt;font color=&quot;#d4d4d4&quot;&gt;&amp;nbsp;&lt;/font&gt;&lt;font color=&quot;#ce9178&quot;&gt;&quot; &quot;&lt;/font&gt;&lt;/div&gt;&lt;/div&gt;&lt;/div&gt;" style="rounded=1;whiteSpace=wrap;html=1;fillColor=#0050ef;fontColor=#ffffff;strokeColor=#001DBC;" vertex="1" parent="1">
          <mxGeometry x="78.25" y="459" width="200" height="140" as="geometry" />
        </mxCell>
        <mxCell id="tfo9UOyOJ3hsdxHMLcPj-13" style="edgeStyle=orthogonalEdgeStyle;rounded=0;orthogonalLoop=1;jettySize=auto;html=1;exitX=0.5;exitY=1;exitDx=0;exitDy=0;entryX=0.5;entryY=0;entryDx=0;entryDy=0;" edge="1" parent="1" source="tfo9UOyOJ3hsdxHMLcPj-12">
          <mxGeometry relative="1" as="geometry">
            <mxPoint x="178.25" y="320" as="targetPoint" />
          </mxGeometry>
        </mxCell>
        <mxCell id="tfo9UOyOJ3hsdxHMLcPj-12" value="&lt;font style=&quot;font-size: 12px;&quot;&gt;El usuario interactua con el Chatbot.&lt;/font&gt;" style="rounded=1;whiteSpace=wrap;html=1;fillColor=#1ba1e2;fontColor=#ffffff;strokeColor=#006EAF;" vertex="1" parent="1">
          <mxGeometry x="118.25" y="230" width="120" height="60" as="geometry" />
        </mxCell>
        <mxCell id="tfo9UOyOJ3hsdxHMLcPj-20" style="edgeStyle=orthogonalEdgeStyle;rounded=0;orthogonalLoop=1;jettySize=auto;html=1;exitX=0.5;exitY=1;exitDx=0;exitDy=0;entryX=0.5;entryY=0;entryDx=0;entryDy=0;" edge="1" parent="1" source="tfo9UOyOJ3hsdxHMLcPj-14" target="tfo9UOyOJ3hsdxHMLcPj-19">
          <mxGeometry relative="1" as="geometry" />
        </mxCell>
        <mxCell id="tfo9UOyOJ3hsdxHMLcPj-14" value="&lt;font style=&quot;font-size: 12px;&quot;&gt;El usuario interactua con el Chatbot.&lt;/font&gt;" style="rounded=1;whiteSpace=wrap;html=1;fillColor=#60a917;fontColor=#ffffff;strokeColor=#2D7600;" vertex="1" parent="1">
          <mxGeometry x="578.25" y="230" width="120" height="60" as="geometry" />
        </mxCell>
        <mxCell id="tfo9UOyOJ3hsdxHMLcPj-17" style="edgeStyle=orthogonalEdgeStyle;rounded=0;orthogonalLoop=1;jettySize=auto;html=1;exitX=0.5;exitY=1;exitDx=0;exitDy=0;" edge="1" parent="1">
          <mxGeometry relative="1" as="geometry">
            <mxPoint x="178.25" y="430" as="sourcePoint" />
            <mxPoint x="178.25" y="460" as="targetPoint" />
          </mxGeometry>
        </mxCell>
        <mxCell id="tfo9UOyOJ3hsdxHMLcPj-16" value="Se crea un Namespace de nombre:&lt;br&gt;&lt;br&gt;&lt;div style=&quot;color: rgb(212, 212, 212); background-color: rgb(30, 30, 30); line-height: 18px;&quot;&gt;[Canal]_[SiteID]_[Teléfono del usuario]&lt;/div&gt;&lt;div style=&quot;color: rgb(212, 212, 212); background-color: rgb(30, 30, 30); line-height: 18px;&quot;&gt;&lt;br&gt;&lt;/div&gt;&lt;div style=&quot;color: rgb(212, 212, 212); background-color: rgb(30, 30, 30); line-height: 18px;&quot;&gt;Por ejemplo: WA_53390678_5512345678&lt;/div&gt;" style="rounded=1;whiteSpace=wrap;html=1;fillColor=#0050ef;fontColor=#ffffff;strokeColor=#001DBC;" vertex="1" parent="1">
          <mxGeometry x="65.75" y="319" width="225" height="110" as="geometry" />
        </mxCell>
        <mxCell id="tfo9UOyOJ3hsdxHMLcPj-18" value="" style="group" vertex="1" connectable="0" parent="1">
          <mxGeometry x="490" y="430" width="280" height="434" as="geometry" />
        </mxCell>
        <mxCell id="tfo9UOyOJ3hsdxHMLcPj-8" value="Se crea un namespace con los siguientes datos:&lt;br style=&quot;border-color: var(--border-color);&quot;&gt;&lt;br style=&quot;border-color: var(--border-color);&quot;&gt;&lt;div style=&quot;border-color: var(--border-color); color: rgb(212, 212, 212); background-color: rgb(30, 30, 30); line-height: 18px;&quot;&gt;&quot;Message&quot;:&amp;nbsp;&lt;span style=&quot;border-color: var(--border-color); color: rgb(206, 145, 120);&quot;&gt;&quot;No reconozco&amp;nbsp;compra&quot;&lt;/span&gt;&lt;/div&gt;&lt;div style=&quot;border-color: var(--border-color); background-color: rgb(30, 30, 30); line-height: 18px;&quot;&gt;&lt;div style=&quot;border-color: var(--border-color); line-height: 18px;&quot;&gt;&lt;div style=&quot;border-color: var(--border-color);&quot;&gt;&lt;div style=&quot;color: rgb(212, 212, 212); border-color: var(--border-color);&quot;&gt;&amp;nbsp; &amp;nbsp; &quot;userId&quot;: &quot; &quot;,&lt;/div&gt;&lt;div style=&quot;color: rgb(212, 212, 212); border-color: var(--border-color);&quot;&gt;&amp;nbsp; &amp;nbsp; &quot;botId&quot;: &quot; &quot;,&lt;/div&gt;&lt;div style=&quot;color: rgb(212, 212, 212); border-color: var(--border-color);&quot;&gt;&amp;nbsp; &amp;nbsp; &quot;conversationId&quot;: &quot; &quot;,&lt;/div&gt;&lt;div style=&quot;color: rgb(212, 212, 212); border-color: var(--border-color);&quot;&gt;&amp;nbsp; &amp;nbsp; &quot;Provincia&quot;: &quot; &quot;,&lt;/div&gt;&lt;div style=&quot;color: rgb(212, 212, 212); border-color: var(--border-color);&quot;&gt;&amp;nbsp; &amp;nbsp; &quot;Sucursal&quot;: &quot; &quot;,&lt;/div&gt;&lt;div style=&quot;border-color: var(--border-color);&quot;&gt;&lt;font color=&quot;#d4d4d4&quot;&gt;&quot;Sucursal SJ&quot;: &quot; &quot;&lt;/font&gt;&lt;br&gt;&lt;/div&gt;&lt;/div&gt;&lt;/div&gt;&lt;/div&gt;" style="rounded=1;whiteSpace=wrap;html=1;fillColor=#008a00;fontColor=#ffffff;strokeColor=#005700;" vertex="1" parent="tfo9UOyOJ3hsdxHMLcPj-18">
          <mxGeometry x="28.25" y="40" width="250" height="180" as="geometry" />
        </mxCell>
        <mxCell id="tfo9UOyOJ3hsdxHMLcPj-9" value="" style="shape=flexArrow;endArrow=classic;html=1;rounded=0;endWidth=1.6666666666666667;endSize=8.666666666666668;fillColor=#008a00;strokeColor=#005700;" edge="1" parent="tfo9UOyOJ3hsdxHMLcPj-18">
          <mxGeometry width="50" height="50" relative="1" as="geometry">
            <mxPoint x="-1.75" y="206" as="sourcePoint" />
            <mxPoint x="106.25" y="206" as="targetPoint" />
          </mxGeometry>
        </mxCell>
        <mxCell id="tfo9UOyOJ3hsdxHMLcPj-11" value="&lt;span style=&quot;font-size: 10px;&quot;&gt;&lt;b&gt;&lt;i&gt;Sólo para San José&lt;/i&gt;&lt;/b&gt;&lt;/span&gt;" style="edgeLabel;html=1;align=center;verticalAlign=middle;resizable=0;points=[];fontSize=10;labelBorderColor=none;labelBackgroundColor=none;" vertex="1" connectable="0" parent="tfo9UOyOJ3hsdxHMLcPj-9">
          <mxGeometry x="-0.1" relative="1" as="geometry">
            <mxPoint x="-2" as="offset" />
          </mxGeometry>
        </mxCell>
        <mxCell id="tfo9UOyOJ3hsdxHMLcPj-21" style="edgeStyle=orthogonalEdgeStyle;rounded=0;orthogonalLoop=1;jettySize=auto;html=1;exitX=0.5;exitY=1;exitDx=0;exitDy=0;entryX=0.5;entryY=0;entryDx=0;entryDy=0;" edge="1" parent="1" source="tfo9UOyOJ3hsdxHMLcPj-19" target="tfo9UOyOJ3hsdxHMLcPj-8">
          <mxGeometry relative="1" as="geometry" />
        </mxCell>
        <mxCell id="tfo9UOyOJ3hsdxHMLcPj-19" value="Se crea un Namespace de nombre:&lt;br&gt;&lt;br&gt;&lt;div style=&quot;color: rgb(212, 212, 212); background-color: rgb(30, 30, 30); line-height: 18px;&quot;&gt;[Canal]_[SiteID]_[Teléfono del usuario]&lt;/div&gt;&lt;div style=&quot;color: rgb(212, 212, 212); background-color: rgb(30, 30, 30); line-height: 18px;&quot;&gt;&lt;br&gt;&lt;/div&gt;&lt;div style=&quot;color: rgb(212, 212, 212); background-color: rgb(30, 30, 30); line-height: 18px;&quot;&gt;Por ejemplo: WA_53390678_5512345678&lt;/div&gt;" style="rounded=1;whiteSpace=wrap;html=1;fillColor=#008a00;fontColor=#ffffff;strokeColor=#005700;" vertex="1" parent="1">
          <mxGeometry x="525.75" y="330" width="225" height="110" as="geometry" />
        </mxCell>
        <mxCell id="tfo9UOyOJ3hsdxHMLcPj-22" value="Termina la interacción para el usuario." style="rounded=1;whiteSpace=wrap;html=1;fillColor=#1ba1e2;fontColor=#ffffff;strokeColor=#006EAF;" vertex="1" parent="1">
          <mxGeometry x="131.75" y="630" width="93" height="60" as="geometry" />
        </mxCell>
        <mxCell id="tfo9UOyOJ3hsdxHMLcPj-24" value="Termina la interacción para el usuario." style="rounded=1;whiteSpace=wrap;html=1;fillColor=#60a917;fontColor=#ffffff;strokeColor=#2D7600;" vertex="1" parent="1">
          <mxGeometry x="599.25" y="680" width="88" height="60" as="geometry" />
        </mxCell>
        <mxCell id="tfo9UOyOJ3hsdxHMLcPj-25" style="edgeStyle=orthogonalEdgeStyle;rounded=0;orthogonalLoop=1;jettySize=auto;html=1;exitX=0.5;exitY=1;exitDx=0;exitDy=0;entryX=0.5;entryY=0;entryDx=0;entryDy=0;" edge="1" parent="1" source="tfo9UOyOJ3hsdxHMLcPj-8" target="tfo9UOyOJ3hsdxHMLcPj-24">
          <mxGeometry relative="1" as="geometry" />
        </mxCell>
        <mxCell id="tfo9UOyOJ3hsdxHMLcPj-27" style="edgeStyle=orthogonalEdgeStyle;rounded=0;orthogonalLoop=1;jettySize=auto;html=1;exitX=0.5;exitY=1;exitDx=0;exitDy=0;entryX=0.5;entryY=0;entryDx=0;entryDy=0;" edge="1" parent="1" source="tfo9UOyOJ3hsdxHMLcPj-26" target="tfo9UOyOJ3hsdxHMLcPj-28">
          <mxGeometry relative="1" as="geometry">
            <mxPoint x="413.66666666666697" y="1013" as="targetPoint" />
          </mxGeometry>
        </mxCell>
        <mxCell id="tfo9UOyOJ3hsdxHMLcPj-26" value="&lt;b&gt;De manera externa se puede consultar una lista con los Namespaces creados en el SiteID.&lt;/b&gt;" style="rounded=1;whiteSpace=wrap;html=1;fillColor=#BE8CFF;" vertex="1" parent="1">
          <mxGeometry x="334" y="893" width="159" height="60" as="geometry" />
        </mxCell>
        <mxCell id="tfo9UOyOJ3hsdxHMLcPj-30" style="edgeStyle=orthogonalEdgeStyle;rounded=0;orthogonalLoop=1;jettySize=auto;html=1;exitX=0.5;exitY=1;exitDx=0;exitDy=0;entryX=0.5;entryY=0;entryDx=0;entryDy=0;" edge="1" parent="1" source="tfo9UOyOJ3hsdxHMLcPj-28" target="tfo9UOyOJ3hsdxHMLcPj-31">
          <mxGeometry relative="1" as="geometry">
            <mxPoint x="413.66666666666697" y="1103" as="targetPoint" />
          </mxGeometry>
        </mxCell>
        <mxCell id="tfo9UOyOJ3hsdxHMLcPj-28" value="&lt;b style=&quot;&quot;&gt;&lt;font color=&quot;#ff0000&quot;&gt;&lt;i style=&quot;&quot;&gt;Consultar&lt;/i&gt; los namespaces&lt;/font&gt;&lt;font color=&quot;#000000&quot;&gt; usando el endpoint provisto.&lt;/font&gt;&lt;/b&gt;" style="rounded=1;whiteSpace=wrap;html=1;fillColor=#dfc7ff;" vertex="1" parent="1">
          <mxGeometry x="334" y="983" width="159" height="60" as="geometry" />
        </mxCell>
        <mxCell id="tfo9UOyOJ3hsdxHMLcPj-34" style="edgeStyle=orthogonalEdgeStyle;rounded=0;orthogonalLoop=1;jettySize=auto;html=1;exitX=0.5;exitY=1;exitDx=0;exitDy=0;entryX=0.5;entryY=0;entryDx=0;entryDy=0;" edge="1" parent="1" source="tfo9UOyOJ3hsdxHMLcPj-31" target="tfo9UOyOJ3hsdxHMLcPj-33">
          <mxGeometry relative="1" as="geometry" />
        </mxCell>
        <mxCell id="tfo9UOyOJ3hsdxHMLcPj-31" value="&lt;b style=&quot;&quot;&gt;&lt;font color=&quot;#000000&quot;&gt;Una vez identificado el Namespace, podemos &lt;/font&gt;&lt;font color=&quot;#fc0000&quot;&gt;&lt;i style=&quot;&quot;&gt;Consultar &lt;/i&gt;sus propiedades&lt;/font&gt;&lt;font color=&quot;#000000&quot;&gt; usando el endpoint provisto&lt;/font&gt;&lt;/b&gt;" style="rounded=1;whiteSpace=wrap;html=1;fillColor=#dfc7ff;" vertex="1" parent="1">
          <mxGeometry x="334" y="1073" width="166" height="60" as="geometry" />
        </mxCell>
        <mxCell id="tfo9UOyOJ3hsdxHMLcPj-33" value="&lt;b style=&quot;&quot;&gt;&lt;font color=&quot;#000000&quot;&gt;Una vez esto hecho, se debe &lt;/font&gt;&lt;font color=&quot;#ff0019&quot;&gt;Borrar el namespace&lt;/font&gt;&lt;font color=&quot;#000000&quot;&gt;, usando el endpoint provisto.&lt;/font&gt;&lt;/b&gt;" style="rounded=1;whiteSpace=wrap;html=1;fillColor=#dfc7ff;" vertex="1" parent="1">
          <mxGeometry x="334" y="1163" width="166" height="60" as="geometry" />
        </mxCell>
        <mxCell id="tfo9UOyOJ3hsdxHMLcPj-37" value="" style="group" vertex="1" connectable="0" parent="1">
          <mxGeometry x="212" y="850" width="404" height="404" as="geometry" />
        </mxCell>
        <mxCell id="tfo9UOyOJ3hsdxHMLcPj-36" value="&lt;b&gt;&lt;font style=&quot;font-size: 15px;&quot; color=&quot;#7f00ff&quot;&gt;Consulta externa API&lt;/font&gt;&lt;/b&gt;" style="text;html=1;strokeColor=none;fillColor=none;align=center;verticalAlign=middle;whiteSpace=wrap;rounded=0;" vertex="1" parent="tfo9UOyOJ3hsdxHMLcPj-37">
          <mxGeometry width="157" height="30" as="geometry" />
        </mxCell>
        <mxCell id="tfo9UOyOJ3hsdxHMLcPj-35" value="" style="whiteSpace=wrap;html=1;aspect=fixed;fillColor=none;strokeColor=#8000ff;strokeWidth=2;" vertex="1" parent="1">
          <mxGeometry x="211" y="850" width="404" height="404" as="geometry" />
        </mxCell>
        <mxCell id="tfo9UOyOJ3hsdxHMLcPj-38" value="" style="whiteSpace=wrap;html=1;aspect=fixed;fillColor=none;strokeColor=#57F9FF;strokeWidth=2;" vertex="1" parent="1">
          <mxGeometry x="55.25" y="41" width="720" height="720" as="geometry" />
        </mxCell>
        <mxCell id="tfo9UOyOJ3hsdxHMLcPj-41" value="&lt;b&gt;&lt;font color=&quot;#45fff9&quot; style=&quot;font-size: 15px;&quot;&gt;Interacción Usuario-Bot&lt;/font&gt;&lt;/b&gt;" style="text;html=1;strokeColor=none;fillColor=none;align=center;verticalAlign=middle;whiteSpace=wrap;rounded=0;" vertex="1" parent="1">
          <mxGeometry x="55.25" y="41" width="174.75" height="30" as="geometry" />
        </mxCell>
        <mxCell id="tfo9UOyOJ3hsdxHMLcPj-49" style="edgeStyle=orthogonalEdgeStyle;rounded=0;orthogonalLoop=1;jettySize=auto;html=1;exitX=0.5;exitY=1;exitDx=0;exitDy=0;entryX=0.5;entryY=0;entryDx=0;entryDy=0;" edge="1" parent="1" source="tfo9UOyOJ3hsdxHMLcPj-50" target="tfo9UOyOJ3hsdxHMLcPj-52">
          <mxGeometry relative="1" as="geometry">
            <mxPoint x="410.66666666666697" y="1500" as="targetPoint" />
          </mxGeometry>
        </mxCell>
        <mxCell id="tfo9UOyOJ3hsdxHMLcPj-50" value="&lt;b&gt;De manera externa se puede consultar una lista con los Namespaces creados en el SiteID.&lt;/b&gt;" style="rounded=1;whiteSpace=wrap;html=1;fillColor=#BE8CFF;" vertex="1" parent="1">
          <mxGeometry x="331" y="1380" width="159" height="60" as="geometry" />
        </mxCell>
        <mxCell id="tfo9UOyOJ3hsdxHMLcPj-51" style="edgeStyle=orthogonalEdgeStyle;rounded=0;orthogonalLoop=1;jettySize=auto;html=1;exitX=0.5;exitY=1;exitDx=0;exitDy=0;entryX=0.5;entryY=0;entryDx=0;entryDy=0;" edge="1" parent="1" source="tfo9UOyOJ3hsdxHMLcPj-52" target="tfo9UOyOJ3hsdxHMLcPj-54">
          <mxGeometry relative="1" as="geometry">
            <mxPoint x="410.66666666666697" y="1590" as="targetPoint" />
          </mxGeometry>
        </mxCell>
        <mxCell id="tfo9UOyOJ3hsdxHMLcPj-52" value="&lt;b style=&quot;&quot;&gt;&lt;font color=&quot;#ff0000&quot;&gt;&lt;i style=&quot;&quot;&gt;Consultar&lt;/i&gt; los namespaces&lt;/font&gt;&lt;font color=&quot;#000000&quot;&gt; usando el endpoint provisto.&lt;/font&gt;&lt;/b&gt;" style="rounded=1;whiteSpace=wrap;html=1;fillColor=#dfc7ff;" vertex="1" parent="1">
          <mxGeometry x="331" y="1470" width="159" height="60" as="geometry" />
        </mxCell>
        <mxCell id="tfo9UOyOJ3hsdxHMLcPj-53" style="edgeStyle=orthogonalEdgeStyle;rounded=0;orthogonalLoop=1;jettySize=auto;html=1;exitX=0.5;exitY=1;exitDx=0;exitDy=0;entryX=0.5;entryY=0;entryDx=0;entryDy=0;" edge="1" parent="1" source="tfo9UOyOJ3hsdxHMLcPj-54" target="tfo9UOyOJ3hsdxHMLcPj-55">
          <mxGeometry relative="1" as="geometry" />
        </mxCell>
        <mxCell id="tfo9UOyOJ3hsdxHMLcPj-54" value="&lt;b style=&quot;&quot;&gt;&lt;font color=&quot;#000000&quot;&gt;Una vez identificado el Namespace, podemos &lt;/font&gt;&lt;font color=&quot;#fc0000&quot;&gt;&lt;i style=&quot;&quot;&gt;Consultar &lt;/i&gt;sus propiedades&lt;/font&gt;&lt;font color=&quot;#000000&quot;&gt; usando el endpoint provisto&lt;/font&gt;&lt;/b&gt;" style="rounded=1;whiteSpace=wrap;html=1;fillColor=#dfc7ff;" vertex="1" parent="1">
          <mxGeometry x="331" y="1560" width="166" height="60" as="geometry" />
        </mxCell>
        <mxCell id="tfo9UOyOJ3hsdxHMLcPj-55" value="&lt;b style=&quot;&quot;&gt;&lt;font color=&quot;#000000&quot;&gt;Una vez esto hecho, se debe &lt;/font&gt;&lt;font color=&quot;#ff0019&quot;&gt;Borrar el namespace&lt;/font&gt;&lt;font color=&quot;#000000&quot;&gt;, usando el endpoint provisto.&lt;/font&gt;&lt;/b&gt;" style="rounded=1;whiteSpace=wrap;html=1;fillColor=#dfc7ff;" vertex="1" parent="1">
          <mxGeometry x="331" y="1650" width="166" height="60" as="geometry" />
        </mxCell>
      </root>
    </mxGraphModel>
  </diagram>
</mxfile>
